<mxfile host="app.diagrams.net" modified="2024-03-21T03:43:33.970Z" agent="Mozilla/5.0 (Windows NT 10.0; Win64; x64) AppleWebKit/537.36 (KHTML, like Gecko) Chrome/122.0.0.0 Safari/537.36 Edg/122.0.0.0" version="24.0.7" etag="PgG8HHdQn5prTuxc8A9t" type="github">
  <diagram name="第 1 页" id="sM5CxfNwwlisl2cYAO_p">
    <mxGraphModel>
      <root>
        <mxCell id="0" />
        <mxCell id="1" parent="0" />
      </root>
    </mxGraphModel>
  </diagram>
</mxfile>
